<?xml version="1.0" encoding="utf-8"?>
<!-- Generator: Adobe Illustrator 27.7.0, SVG Export Plug-In . SVG Version: 6.00 Build 0)  -->
<svg version="1.1" id="Capa_1" xmlns="http://www.w3.org/2000/svg" xmlns:xlink="http://www.w3.org/1999/xlink" x="0px" y="0px"
	 viewBox="0 0 102 102" style="enable-background:new 0 0 102 102;" xml:space="preserve">
<style type="text/css">
	.st0{fill:#575756;}
	.st1{fill:none;stroke:#1D1D1B;stroke-miterlimit:10;}
	.st2{fill:#FFFFFF;stroke:#1D1D1B;stroke-width:7.0866;stroke-miterlimit:10;}
	.st3{fill:#FFFFFF;stroke:#1D1D1B;stroke-width:4.252;stroke-linecap:round;stroke-linejoin:round;stroke-miterlimit:10;}
	.st4{fill:#1D1D1B;}
	.st5{fill:#FFFFFF;}
</style>
<g>
	<path class="st4" d="M98.8,9.2H32.3c-16,0-29.1,13-29.1,29.1v25.5c0,16,13,29.1,29.1,29.1h66.5V80.7H32.3
		c-9.3,0-16.9-7.6-16.9-16.9V38.3c0-9.3,7.6-16.9,16.9-16.9h66.5V9.2z"/>
	<path class="st4" d="M54.6,69.1l11.7,6.7V57.4h14.7c2,0,3.6-1.6,3.6-3.6c0-2-1.6-3.6-3.6-3.6H35V38.7c0-2-1.6-3.6-3.6-3.6
		s-3.6,1.6-3.6,3.6v15.1c0,2,1.6,3.6,3.6,3.6h11.5v18.4L54.6,69.1z"/>
</g>
</svg>
